<svg width="20" height="20" viewBox="0 0 20 20" fill="none" xmlns="http://www.w3.org/2000/svg">
<path d="M3.33203 17.5C3.33203 17.0398 3.70513 16.6667 4.16536 16.6667H15.832C16.2923 16.6667 16.6654 17.0398 16.6654 17.5C16.6654 17.9602 16.2923 18.3333 15.832 18.3333H4.16536C3.70513 18.3333 3.33203 17.9602 3.33203 17.5Z" fill="white"/>
<path d="M9.95008 4.46135C9.78736 4.29863 9.52354 4.29863 9.36083 4.46135L6.12857 7.69356C5.96585 7.85628 5.96585 8.1201 6.12857 8.28282L10.0512 12.2054C10.2139 12.3681 10.4777 12.3681 10.6404 12.2054L13.8727 8.97319C14.0354 8.81048 14.0354 8.54666 13.8727 8.38394L9.95008 4.46135Z" fill="white"/>
<path d="M8.86816 13.749C9.00499 13.711 9.03051 13.5418 8.93008 13.4414L4.89261 9.40388C4.79219 9.30346 4.623 9.32897 4.58497 9.4658V9.4658L3.37048 13.8348C3.17945 14.522 3.81194 15.1545 4.49916 14.9635L8.86816 13.749V13.749Z" fill="white"/>
<path d="M11.4258 2.39767C12.4021 1.42137 13.985 1.42138 14.9613 2.39768L15.9376 3.374C16.9139 4.35031 16.9139 5.93323 15.9376 6.90954L15.6417 7.20545C15.479 7.36817 15.2152 7.36817 15.0524 7.20545L11.1299 3.28286C10.9671 3.12014 10.9671 2.85632 11.1299 2.6936L11.4258 2.39767Z" fill="white"/>
</svg>
