<svg width="20" height="20" viewBox="0 0 20 20" fill="none"
    xmlns="http://www.w3.org/2000/svg">
    <path fill-rule="evenodd" clip-rule="evenodd" d="M10 4.5C6.41667 4.5 3.33333 6.66667 2 10C3.33333 13.3333 6.41667 15.5 10 15.5C13.5833 15.5 16.6667 13.3333 18 10C16.6667 6.66667 13.5833 4.5 10 4.5ZM10 13.5C8.06667 13.5 6.5 11.9333 6.5 10C6.5 8.06667 8.06667 6.5 10 6.5C11.9333 6.5 13.5 8.06667 13.5 10C13.5 11.9333 11.9333 13.5 10 13.5ZM10 11.5C10.9667 11.5 11.5 10.9667 11.5 10C11.5 9.03333 10.9667 8.5 10 8.5C9.03333 8.5 8.5 9.03333 8.5 10C8.5 10.9667 9.03333 11.5 10 11.5Z" fill="white" />
</svg>