<svg width="20" height="20" viewBox="0 0 20 20" fill="none" xmlns="http://www.w3.org/2000/svg">
<path fill-rule="evenodd" clip-rule="evenodd" d="M9.58469 1.66667C8.89434 1.66667 8.33469 2.22632 8.33469 2.91667V3.22035C8.33469 3.41047 8.20555 3.57515 8.02396 3.63147C7.63145 3.7532 7.25446 3.91022 6.89671 4.09883C6.7285 4.1875 6.5207 4.16238 6.38624 4.02792L6.17114 3.81282C5.68299 3.32467 4.89153 3.32467 4.40337 3.81282L3.81412 4.40208C3.32596 4.89023 3.32596 5.68169 3.81412 6.16984L4.02922 6.38494C4.16368 6.5194 4.1888 6.72721 4.10012 6.89541C3.91153 7.25315 3.75451 7.63012 3.63278 8.02261C3.57646 8.2042 3.41178 8.33334 3.22166 8.33334H2.91797C2.22761 8.33334 1.66797 8.89298 1.66797 9.58334V10.4167C1.66797 11.107 2.22761 11.6667 2.91797 11.6667H3.22166C3.41178 11.6667 3.57646 11.7958 3.63278 11.9774C3.75451 12.3699 3.91153 12.7469 4.10012 13.1046C4.1888 13.2728 4.16368 13.4806 4.02922 13.6151L3.81412 13.8302C3.32596 14.3183 3.32596 15.1098 3.81412 15.5979L4.40337 16.1872C4.89153 16.6753 5.68299 16.6753 6.17114 16.1872L6.38624 15.9721C6.5207 15.8376 6.7285 15.8125 6.89671 15.9012C7.25446 16.0898 7.63145 16.2468 8.02396 16.3685C8.20555 16.4249 8.33469 16.5895 8.33469 16.7797V17.0833C8.33469 17.7737 8.89434 18.3333 9.58469 18.3333H10.418C11.1084 18.3333 11.668 17.7737 11.668 17.0833V16.7796C11.668 16.5895 11.7972 16.4248 11.9787 16.3685C12.3712 16.2468 12.7482 16.0898 13.1059 15.9012C13.2741 15.8125 13.4819 15.8376 13.6164 15.9721L13.8315 16.1872C14.3196 16.6753 15.1111 16.6753 15.5992 16.1872L16.1885 15.5979C16.6766 15.1098 16.6766 14.3183 16.1885 13.8302L15.9734 13.6151C15.8389 13.4806 15.8138 13.2728 15.9025 13.1046C16.0911 12.7469 16.2481 12.3699 16.3698 11.9774C16.4261 11.7958 16.5908 11.6667 16.7809 11.6667H17.0846C17.775 11.6667 18.3346 11.107 18.3346 10.4167V9.58334C18.3346 8.89298 17.775 8.33334 17.0846 8.33334H16.7809C16.5908 8.33334 16.4261 8.2042 16.3698 8.02261C16.2481 7.63012 16.0911 7.25315 15.9025 6.89542C15.8138 6.72721 15.8389 6.5194 15.9734 6.38494L16.1885 6.16984C16.6766 5.68169 16.6766 4.89023 16.1885 4.40208L15.5992 3.81282C15.1111 3.32467 14.3196 3.32467 13.8315 3.81282L13.6164 4.02792C13.4819 4.16238 13.2741 4.1875 13.1059 4.09883C12.7482 3.91024 12.3712 3.75323 11.9787 3.6315C11.7972 3.57518 11.668 3.4105 11.668 3.22038V2.91667C11.668 2.22632 11.1084 1.66667 10.418 1.66667H9.58469ZM10.0013 12.5C11.382 12.5 12.5013 11.3807 12.5013 10C12.5013 8.61929 11.382 7.50001 10.0013 7.50001C8.62059 7.50001 7.5013 8.61929 7.5013 10C7.5013 11.3807 8.62059 12.5 10.0013 12.5Z" fill="white"/>
</svg>
