<svg width="20" height="20" viewBox="0 0 20 20" fill="none" xmlns="http://www.w3.org/2000/svg">
<path fill-rule="evenodd" clip-rule="evenodd" d="M4.16797 8.33334C4.16797 7.41286 4.91416 6.66667 5.83464 6.66667H14.168C15.0884 6.66667 15.8346 7.41286 15.8346 8.33334V15.8333C15.8346 17.2141 14.7153 18.3333 13.3346 18.3333H6.66797C5.28726 18.3333 4.16797 17.2141 4.16797 15.8333V8.33334ZM7.5013 10.8333C7.5013 10.3731 7.8744 10 8.33464 10C8.79487 10 9.16797 10.3731 9.16797 10.8333V14.1667C9.16797 14.6269 8.79487 15 8.33464 15C7.8744 15 7.5013 14.6269 7.5013 14.1667V10.8333ZM10.8346 10.8333C10.8346 10.3731 11.2077 10 11.668 10C12.1282 10 12.5013 10.3731 12.5013 10.8333V14.1667C12.5013 14.6269 12.1282 15 11.668 15C11.2077 15 10.8346 14.6269 10.8346 14.1667V10.8333Z" fill="white"/>
<path d="M8.33203 1.66667C7.41156 1.66667 6.66536 2.41286 6.66536 3.33334H4.16536C3.70513 3.33334 3.33203 3.70643 3.33203 4.16667C3.33203 4.62691 3.70513 5.00001 4.16536 5.00001H15.832C16.2923 5.00001 16.6654 4.62691 16.6654 4.16667C16.6654 3.70643 16.2923 3.33334 15.832 3.33334H13.332C13.332 2.41286 12.5858 1.66667 11.6654 1.66667H8.33203Z" fill="white"/>
</svg>
